Coordinates
version=1
nRows=14
nColumns=36
inDegrees=yes

Units are S.I. units (second, meters, Newtons, ...)
If the header above contains a line with 'inDegrees', this indicates whether rotational values are in degrees (yes) or radians (no).

endheader
time	pelvis_tilt	pelvis_list	pelvis_rotation	pelvis_tx	pelvis_ty	pelvis_tz	hip_flexion_r	hip_adduction_r	hip_rotation_r	knee_angle_r	knee_angle_r_beta	ankle_angle_r	subtalar_angle_r	mtp_angle_r	hip_flexion_l	hip_adduction_l	hip_rotation_l	knee_angle_l	knee_angle_l_beta	ankle_angle_l	subtalar_angle_l	mtp_angle_l	lumbar_extension	lumbar_bending	lumbar_rotation	arm_flex_r	arm_add_r	arm_rot_r	elbow_flex_r	pro_sup_r	arm_flex_l	arm_add_l	arm_rot_l	elbow_flex_l	pro_sup_l
      3.27118640	     -2.93091310	     -0.58932756	      1.44291451	      0.28368752	      0.94851567	     -0.06461994	      6.02684331	     -2.54894164	     -2.10653099	      7.44987698	      0.13002488	      2.12861334	    -13.07796826	     -7.49999987	      6.64489913	     -4.89878947	     -2.94100501	      7.03648464	      0.12280982	     -0.77533417	     -7.50705085	     -7.49999987	     -1.65912438	     -1.45952740	      1.69367542	     94.63337434	     -8.50547791	      7.29394266	     31.72239339	     64.78739867	    103.52254142	     -4.71183155	     33.88670523	     17.10324739	     38.37534137
      3.28813560	     -2.98952630	     -0.58426522	      1.39595512	      0.28395381	      0.94853295	     -0.06439472	      6.06178698	     -2.57786751	     -2.32216853	      7.43220360	      0.12971642	      2.39956000	    -12.76726984	     -7.49999987	      6.67776466	     -4.85980708	     -2.98936347	      6.96061141	      0.12148559	     -0.52976540	     -7.31892035	     -7.49999987	     -1.56388737	     -1.42390652	      1.88045408	     94.90252202	     -8.52643243	      7.30695979	     31.58829620	     64.74898403	    103.63228713	     -4.62605447	     33.46702860	     17.19103441	     39.17217594
      3.30508470	     -2.96137195	     -0.56086980	      1.26354654	      0.28374660	      0.94865716	     -0.06432166	      6.03901565	     -2.59518491	     -2.26447071	      7.46074081	      0.13021449	      2.42458114	    -12.86458772	     -7.49999987	      6.56520530	     -4.81981510	     -3.08537512	      6.84615291	      0.11948791	     -0.43605735	     -7.11445837	     -7.49999987	     -1.59168367	     -1.44312260	      2.15563277	     94.89608835	     -8.65914069	      6.76471919	     32.28434258	     64.31650945	    103.61340634	     -4.50647108	     32.40777189	     17.63641714	     40.91300733
      3.32203390	     -3.12644782	     -0.60582377	      1.24652992	      0.28390313	      0.94534802	     -0.06403776	      6.27442010	     -2.54756134	     -2.45430722	      7.60688318	      0.13276516	      2.66570711	    -12.68157111	     -7.49999987	      6.77040523	     -4.84016705	     -3.01861379	      6.89488326	      0.12033841	     -0.26655281	     -7.22583841	     -7.49999987	     -1.31315818	     -1.40131810	      2.19116604	     95.44987112	     -8.66125963	      7.06716799	     31.32895318	     64.96929958	    103.93373534	     -4.28947514	     33.01333498	     16.69108125	     40.87809258
      3.33898300	     -3.08983496	     -0.62813127	      1.15935271	      0.28373327	      0.94588620	     -0.06403909	      6.27670644	     -2.50551254	     -2.44928759	      7.72788082	      0.13487696	      2.68805781	    -12.83194188	     -7.49999987	      6.70249397	     -4.88179384	     -3.12175648	      6.86974717	      0.11989971	     -0.14354911	     -7.05310324	     -7.49999987	     -1.38891235	     -1.39061410	      2.22350442	     95.51207171	     -8.70834356	      6.63461849	     31.70986590	     64.82460711	    104.02019018	     -4.44607245	     32.88681959	     16.94825945	     41.58417072
      3.35593220	     -3.11390869	     -0.64752383	      1.12111947	      0.28393065	      0.94628868	     -0.06391324	      6.35859363	     -2.47204450	     -2.55268496	      7.88672931	      0.13764939	      2.80655697	    -12.80967694	     -7.49999987	      6.71036727	     -4.89571154	     -3.02933950	      6.87944445	      0.12006896	     -0.13240225	     -7.17544921	     -7.49999987	     -1.32138976	     -1.36999104	      2.25413371	     95.72814665	     -8.67792838	      6.10673588	     31.49427200	     64.72004843	    104.15232146	     -4.38995304	     32.58333218	     16.79084729	     42.50532651
      3.37288140	     -3.12681169	     -0.66183073	      1.06897606	      0.28816560	      0.94664511	     -0.05966821	      6.30170444	     -2.36279067	     -2.61829696	      7.90917829	      0.13804120	      2.77838178	    -12.80600921	     -7.49999987	      6.62820335	     -5.01371580	     -3.03040888	      6.88853846	      0.12022768	     -0.13150268	     -7.16884501	     -7.49999987	     -1.17238344	     -1.46696199	      2.29500083	     95.71720709	     -8.71826976	      6.09911453	     31.48001575	     64.73917824	    104.16996872	     -4.48095130	     32.60716120	     16.77247474	     42.48028744
      3.38983050	     -3.13823711	     -0.66082551	      1.01396256	      0.28392728	      0.94686214	     -0.06394901	      6.29819018	     -2.36733222	     -2.64981331	      7.92409585	      0.13830156	      2.76390073	    -12.80954880	     -7.49999987	      6.61639994	     -5.00865168	     -3.04558375	      6.87709929	      0.12002803	     -0.12666366	     -7.16788505	     -7.49999987	     -1.11105621	     -1.43134322	      2.27821033	     95.72132099	     -8.73909152	      6.09183590	     31.47852295	     64.74530977	    104.18625992	     -4.46587301	     32.62077934	     16.78177079	     42.47388086
      3.40677970	     -3.28837593	     -0.69008266	      0.93393392	      0.28391193	      0.94711633	     -0.06393794	      6.52639642	     -2.36032806	     -2.73294502	      7.97263524	      0.13914873	      2.62568472	    -12.70390236	     -7.49999987	      6.73709669	     -5.04424418	     -3.16327937	      6.79869376	      0.11865959	     -0.22922688	     -7.11145515	     -7.49999987	     -0.87147428	     -1.36277098	      2.40175388	     95.39126039	     -8.74560090	      5.62870840	     32.16608410	     64.70463143	    103.94206054	     -4.34682277	     32.33615530	     17.18411919	     43.12296268
      3.42372880	     -3.27707126	     -0.69123804	      0.93405656	      0.28827186	      0.94726196	     -0.05959089	      6.48616629	     -2.29648158	     -2.71813762	      7.97369224	      0.13916718	      2.62735471	    -12.69486246	     -7.49999987	      6.67741308	     -5.10906545	     -3.14323222	      6.81547605	      0.11895250	     -0.25300480	     -7.09388465	     -7.49999987	     -0.77514079	     -1.41162004	      2.39392940	     95.40397003	     -8.71277465	      5.63558984	     32.18780859	     64.71603481	    103.91235625	     -4.33630003	     32.34958890	     17.17260453	     43.11413725
      3.44067800	     -3.39998951	     -0.77961137	      0.91032856	      0.28833985	      0.94742829	     -0.05963963	      6.44830983	     -2.13831081	     -2.62344100	      7.72828393	      0.13488400	      2.60919228	    -12.63440935	     -7.49999987	      6.69574998	     -5.26444139	     -3.23784683	      6.71940810	      0.11727580	     -0.30940511	     -6.93864836	     -7.49999987	     -0.37463298	     -1.32656902	      2.30532971	     94.93920294	     -8.54265819	      5.63722747	     32.64323172	     64.89801059	    103.57597412	     -4.42349142	     32.45598576	     17.12103636	     43.15141476
      3.45762710	     -3.41133400	     -0.79882010	      0.89951237	      0.28840234	      0.95040149	     -0.05948758	      6.33601545	     -2.03384342	     -2.63729235	      7.61038275	      0.13282624	      2.64189437	    -12.51519208	     -7.49999987	      6.61771218	     -5.36719057	     -3.34518534	      6.67767756	      0.11654746	     -0.42588729	     -6.77604719	     -7.49999987	     -0.22707948	     -1.44968604	      2.39258844	     94.47633810	     -8.41691576	      3.83854704	     33.02119950	     70.91334163	    103.62942515	     -4.45069128	     35.95987279	     16.78744427	     37.92337196
      3.47457630	     -3.39916754	     -0.82218591	      0.86137804	      0.28829446	      0.95031750	     -0.05954303	      6.20660834	     -1.95515580	     -2.69020762	      7.48087150	      0.13056584	      2.64019109	    -12.40674539	     -7.49999987	      6.51808584	     -5.43872506	     -3.46136626	      6.60984069	      0.11536348	     -0.47711091	     -6.70493694	     -7.49999987	     -0.14131538	     -1.48280808	      2.41789767	     94.23207479	     -8.38771980	      3.72627336	     33.23468512	     70.65142398	    103.44574825	     -4.48884247	     35.55394854	     16.87357030	     38.21653466
      3.49152540	     -3.34198858	     -0.84145943	      0.80918663	      0.28831074	      0.95026707	     -0.05959866	      6.06126561	     -1.90815972	     -2.67667679	      7.32572721	      0.12785806	      2.61718692	    -12.22962974	     -7.49999987	      6.37027375	     -5.48329096	     -3.56380460	      6.49985865	      0.11344393	     -0.63256638	     -6.62739699	     -7.49999987	     -0.14616999	     -1.45404642	      2.41862442	     94.04891629	     -8.33489017	      3.66262975	     33.46382650	     70.21300441	    103.22213371	     -4.45691688	     34.84594247	     17.01411177	     38.90134744
